<?xml version="1.0" encoding="UTF-8"?>
<svg viewBox="0 0 272.57 204.6" xmlns="http://www.w3.org/2000/svg">
 <defs>
  <filter id="a">
   <feGaussianBlur stdDeviation="1.054277"/>
  </filter>
 </defs>
 <g transform="rotate(-53.848 31.823 66.062)">
  <g fill="none" stroke-linecap="round" stroke-linejoin="round">
   <path d="m57.021 20.139l-75.218 56.109c-6.7372 5.0362-11.995 10.904-11.972 19.737-0.55646 11.665-1.361 13.11 11.452 18.045 11.285 4.042 14.623 2.1403 24.205-5.0752 23.127-16.034 44.657-32.501 66.889-48.778 14.492-11.696 23.642-16.949 17.698-26.786l-8.5889-11.278c-5.2649-8.061-11.441-4.2715-17.698 0.56391l-53.095 39.474c-9.6402 7.8194-8.8547 8.8058-11.192 18.045-0.63639 7.7185 2.0676 8.4016 6.5068 11.278 9.1249 3.9658 10.784 2.2724 21.082-5.0752l50.753-37.5" stroke="#000" stroke-width="7.063"/>
   <g transform="matrix(.52831 0 0 .57284 17.861 -51.704)" stroke="#fff">
    <path d="m72.378 125.41l-142.25 97.948c-12.741 8.7917-22.684 19.034-22.641 34.454-1.0523 20.363-2.5738 22.885 21.657 31.501 21.341 7.0561 27.654 3.7362 45.775-8.8596 43.736-27.991 84.452-56.737 126.5-85.151 27.406-20.418 44.711-29.588 33.47-46.759l-16.243-19.688c-9.9566-14.072-21.637-7.4568-33.47 0.98441l-100.41 68.908c-18.231 13.65-16.745 15.372-21.165 31.501-1.2035 13.474 3.91 14.667 12.305 19.688 17.256 6.923 20.395 3.967 39.868-8.8596l95.979-65.463" filter="url(#a)" stroke-width="3"/>
    <path d="m72.378 125.41l-142.25 97.948c-12.741 8.7917-22.684 19.034-22.641 34.454-1.0523 20.363-2.5738 22.885 21.657 31.501 21.341 7.0561 27.654 3.7362 45.775-8.8596 43.736-27.991 84.452-56.737 126.5-85.151 27.406-20.418 44.711-29.588 33.47-46.759l-16.243-19.688c-9.9566-14.072-21.637-7.4568-33.47 0.98441l-100.41 68.908c-18.231 13.65-16.745 15.372-21.165 31.501-1.2035 13.474 3.91 14.667 12.305 19.688 17.256 6.923 20.395 3.967 39.868-8.8596l95.979-65.463" stroke-width=".869"/>
   </g>
  </g>
 </g>
</svg>
