<?xml version="1.0" encoding="UTF-8"?>
<!DOCTYPE svg  PUBLIC '-//W3C//DTD SVG 1.1//EN'  'http://www.w3.org/Graphics/SVG/1.1/DTD/svg11.dtd'>
<svg enable-background="new 0 0 1000 1000" version="1.1" viewBox="0 0 1000 1000" xml:space="preserve" xmlns="http://www.w3.org/2000/svg">
	<path d="m764.4 399.2h16.9c1.9 0 3.4-1.5 3.4-3.4v-116.6c0-1.9-1.5-3.4-3.4-3.4h-16.9c-1.9 0-3.4 1.5-3.4 3.4v116.6c0.1 1.9 1.6 3.4 3.4 3.4z"/>
	<path d="m680.6 391.8l18.7-0.3c1.9 0 3.3-1.6 3.3-3.4l-1.1-109.1c0-1.9-1.6-3.4-3.4-3.3l-18.7 0.3c-1.9 0-3.3 1.6-3.3 3.4l1.1 109.1c0 1.9 1.6 3.4 3.4 3.3z"/>
	<rect x="687.6" y="291.7" width="89.2" height="91.7"/>
	<polygon points="254.8 182.1 274.8 211.4 300.7 189 320.7 218.3 346.5 195.8 366.5 225.1 392.3 202.7 412.4 232 438.2 209.6 458.2 238.8 484 216.4 504.1 245.7 529.9 223.3 550 252.6 575.8 230.1 595.9 259.4 621.7 237 641.8 266.3 644.7 264.2 644.7 320 644.7 359.1 644.7 414.9 641.8 412.8 621.7 442.1 595.9 419.6 575.8 448.9 550 426.5 529.9 455.8 504.1 433.4 484 462.6 458.2 440.2 438.2 469.5 412.4 447.1 392.3 476.4 366.5 453.9 346.5 483.2 320.7 460.8 300.7 490.1 274.8 467.7 254.8 496.9 242.8 483.7 242.8 359.1 242.8 320 242.8 195.4"/>
	<path d="m621.4 271.5l2.4 7.1c0.1 0.3 0.2 0.7 0.2 1v121.4c0 0.4-0.1 0.7-0.2 1l-2.4 7.1c-0.5 1.4-1.6 1.4-2.1 0l-2.4-7.1c-0.1-0.3-0.2-0.7-0.2-1v-121.4c0-0.4 0.1-0.7 0.2-1l2.4-7.1c0.5-1.4 1.7-1.4 2.1 0z" fill="#fff"/>
	<path d="m576.6 262.4l3.2 8c0.1 0.4 0.2 0.8 0.2 1.2v137.4c0 0.4-0.1 0.8-0.2 1.2l-3.2 8c-0.6 1.5-2.2 1.5-2.8 0l-3.2-8c-0.1-0.4-0.2-0.8-0.2-1.2v-137.4c0-0.4 0.1-0.8 0.2-1.2l3.2-8c0.6-1.5 2.2-1.5 2.8 0z" fill="#fff"/>
	<path d="m526.8 245.8l3.2 9.7c0.1 0.4 0.2 0.9 0.2 1.4v166.7c0 0.5-0.1 1-0.2 1.4l-3.2 9.7c-0.6 1.9-2.2 1.9-2.8 0l-3.2-9.7c-0.1-0.4-0.2-0.9-0.2-1.4v-166.7c0-0.5 0.1-1 0.2-1.4l3.2-9.7c0.7-1.9 2.2-1.9 2.8 0z" fill="#fff"/>
	<path d="m482.3 239.9l3.2 10.4c0.1 0.5 0.2 1 0.2 1.5v177.2c0 0.5-0.1 1-0.2 1.5l-3.2 10.4c-0.6 2-2.2 2-2.8 0l-3.2-10.4c-0.1-0.5-0.2-1-0.2-1.5v-177.2c0-0.5 0.1-1 0.2-1.5l3.2-10.4c0.6-2 2.2-2 2.8 0z" fill="#fff"/>
	<path d="m432.5 230.3l3.2 11.3c0.1 0.5 0.2 1.1 0.2 1.6v194.1c0 0.6-0.1 1.1-0.2 1.6l-3.2 11.3c-0.6 2.2-2.2 2.2-2.8 0l-3.2-11.3c-0.1-0.5-0.2-1.1-0.2-1.6v-194c0-0.6 0.1-1.1 0.2-1.6l3.2-11.3c0.7-2.2 2.2-2.2 2.8-0.1z" fill="#fff"/>
	<path d="m388 223.5l3.2 12c0.1 0.5 0.2 1.1 0.2 1.7v206c0 0.6-0.1 1.2-0.2 1.7l-3.2 12c-0.6 2.3-2.2 2.3-2.8 0l-3.2-12c-0.1-0.5-0.2-1.1-0.2-1.7v-205.9c0-0.6 0.1-1.2 0.2-1.7l3.2-12c0.6-2.4 2.2-2.4 2.8-0.1z" fill="#fff"/>
	<path d="m343.5 217.7l3.2 12.6c0.1 0.6 0.2 1.2 0.2 1.8v216.4c0 0.6-0.1 1.3-0.2 1.8l-3.2 12.6c-0.6 2.4-2.2 2.4-2.8 0l-3.2-12.6c-0.1-0.6-0.2-1.2-0.2-1.8v-216.4c0-0.6 0.1-1.3 0.2-1.8l3.2-12.6c0.6-2.5 2.2-2.5 2.8 0z" fill="#fff"/>
	<path d="m297 218.8l3.4 12.4c0.2 0.5 0.2 1.2 0.2 1.8l0.8 49.1 1.9 116.1 0.8 49.1c0 0.6-0.1 1.3-0.2 1.8l-3 12.6c-0.6 2.4-2.1 2.5-2.8 0.1l-3.4-12.4c-0.2-0.5-0.2-1.2-0.2-1.8l-0.8-49.1-1.9-116.1-0.8-49.1c0-0.6 0.1-1.3 0.2-1.8l3-12.6c0.6-2.5 2.1-2.5 2.8-0.1z" fill="#fff"/>
	<rect x="676.1" y="195.2" width="16.7" height="7.4"/>
	<rect x="253.6" y="141" width="5.9" height="20.7"/>
	<polygon points="676.9 461.1 692 415.6 692 259.4 676.9 213.9"/>
	<path d="m220 207.6h-4.7v-49.8h49.2v395.6h367.8v-395.6h49.2v395.6h0.3c0 13.9-9.1 25.2-20.3 25.2h-425.9c-11.2 0-20.3-11.3-20.3-25.2v-57.8h4.7c9.6 0 17.4-9.6 17.4-21.5v-30.5c0-11.9-7.8-21.5-17.4-21.5h-4.7v-141h4.7c9.6 0 17.4-9.6 17.4-21.5v-30.5c0-11.8-7.8-21.5-17.4-21.5z"/>
	<ellipse cx="256.6" cy="141" rx="7.2" ry="1.7"/>
	<ellipse cx="692.8" cy="198.9" rx="3.4" ry="8.9"/>
	<path d="m378.1 606.7h131.4c8.8 0 15.9-7.1 15.9-15.9v-10.3c0-41.4-33.6-75-75-75h-13.3c-41.4 0-75 33.6-75 75v10.3c0.1 8.8 7.2 15.9 16 15.9z"/>
	<polygon points="347.8 858.4 452 598.6 429.4 586.8 338.5 853.5"/>
	<polygon points="545.7 858.4 555 853.5 464.1 586.8 441.5 598.6"/>
	<rect x="405.8" y="585.8" width="80" height="49.4"/>
	<polygon points="441.5 860.7 452 860.7 459.3 577.2 434.8 577.2"/>
		<line x1="655.3" x2="578" y1="451.7" y2="562.9" fill="none" stroke="#000" stroke-linecap="round" stroke-linejoin="round" stroke-miterlimit="10" stroke-width="23.41"/>
</svg>
